<?xml version="1.0" encoding="UTF-8"?>
<svg width="304px" height="312px" viewBox="0 0 304 312" version="1.1" xmlns="http://www.w3.org/2000/svg" xmlns:xlink="http://www.w3.org/1999/xlink">
    <!-- Generator: sketchtool 56.3 (101010) - https://sketch.com -->
    <title>36A5772D-7C78-4353-A4C2-8DBFFF986181</title>
    <desc>Created with sketchtool.</desc>
    <defs>
        <path d="M3,0 L269,0 C270.656854,-3.04359188e-16 272,1.34314575 272,3 L272,269 C272,270.656854 270.656854,272 269,272 L3,272 C1.34314575,272 2.02906125e-16,270.656854 0,269 L0,3 C-2.02906125e-16,1.34314575 1.34314575,3.04359188e-16 3,0 Z" id="path-1"></path>
        <filter x="-13.2%" y="-7.4%" width="126.5%" height="129.4%" filterUnits="objectBoundingBox" id="filter-2">
            <feOffset dx="0" dy="24" in="SourceAlpha" result="shadowOffsetOuter1"></feOffset>
            <feGaussianBlur stdDeviation="8" in="shadowOffsetOuter1" result="shadowBlurOuter1"></feGaussianBlur>
            <feComposite in="shadowBlurOuter1" in2="SourceAlpha" operator="out" result="shadowBlurOuter1"></feComposite>
            <feColorMatrix values="0 0 0 0 0   0 0 0 0 0   0 0 0 0 0  0 0 0 0.05 0" type="matrix" in="shadowBlurOuter1"></feColorMatrix>
        </filter>
    </defs>
    <g id="Page-2" stroke="none" stroke-width="1" fill="none" fill-rule="evenodd">
        <g id="regional-center-home" transform="translate(-152.000000, -2399.000000)">
            <g id="bg_tile" transform="translate(168.000000, 2399.000000)">
                <g id="Mask-Copy">
                    <use fill="black" fill-opacity="1" filter="url(#filter-2)" xlink:href="#path-1"></use>
                    <path stroke="#202020" stroke-width="3" d="M3,1.5 C2.17157288,1.5 1.5,2.17157288 1.5,3 L1.5,269 C1.5,269.828427 2.17157288,270.5 3,270.5 L269,270.5 C269.828427,270.5 270.5,269.828427 270.5,269 L270.5,3 C270.5,2.17157288 269.828427,1.5 269,1.5 L3,1.5 Z" stroke-linejoin="square" fill="#FFFFFF" fill-rule="evenodd"></path>
                </g>
                <path d="M9,6.5 C7.61928813,6.5 6.5,7.61928813 6.5,9 L6.5,263 C6.5,264.380712 7.61928813,265.5 9,265.5 L263,265.5 C264.380712,265.5 265.5,264.380712 265.5,263 L265.5,9 C265.5,7.61928813 264.380712,6.5 263,6.5 L9,6.5 Z" id="Mask-Copy" stroke="#202020" fill="#FFFFFF" opacity="0.5"></path>
                <path d="M3,249 L269,249 L269,268 C269,268.552285 268.552285,269 268,269 L4,269 C3.44771525,269 3,268.552285 3,268 L3,249 Z" id="Mask-Copy" fill="#7AC141"></path>
            </g>
        </g>
    </g>
</svg>